HIERARCHY
ROOT hip
{
  OFFSET 0 0 0
  CHANNELS 6 Xposition Yposition Zposition Zrotation Yrotation Xrotation
  JOINT abdomen
  {
    OFFSET 0 20.6881 -0.73152
    CHANNELS 3 Zrotation Xrotation Yrotation
    JOINT chest
    {
      OFFSET 0 11.7043 -0.48768
      CHANNELS 3 Zrotation Xrotation Yrotation
      JOINT neck
      {
        OFFSET 0 22.1894 -2.19456
        CHANNELS 3 Zrotation Xrotation Yrotation
        JOINT head
        {
          OFFSET -0.24384 7.07133 1.2192
          CHANNELS 3 Zrotation Xrotation Yrotation
          JOINT leftEye
          {
            OFFSET 4.14528 8.04674 8.04672
            CHANNELS 3 Zrotation Xrotation Yrotation
            End Site
            {
              OFFSET 1 0 0
            }
          }
          JOINT rightEye
          {
            OFFSET -3.6576 8.04674 8.04672
            CHANNELS 3 Zrotation Xrotation Yrotation
            End Site
            {
              OFFSET 1 0 0
            }
          }
        }
      }
      JOINT rCollar
      {
        OFFSET -2.68224 19.2634 -4.8768
        CHANNELS 3 Zrotation Xrotation Yrotation
        JOINT rShldr
        {
          OFFSET -8.77824 -1.95073 1.46304
          CHANNELS 3 Zrotation Xrotation Yrotation
          JOINT rForeArm
          {
            OFFSET -28.1742 -1.7115 0.48768
            CHANNELS 3 Zrotation Xrotation Yrotation
            JOINT rHand
            {
              OFFSET -22.5879 0.773209 7.07136
              CHANNELS 3 Zrotation Xrotation Yrotation
              JOINT rThumb1
              {
                OFFSET -1.2192 -0.487915 3.41376
                CHANNELS 3 Zrotation Xrotation Yrotation
                JOINT rThumb2
                {
                  OFFSET -3.37035 -0.52449 3.41376
                  CHANNELS 3 Zrotation Xrotation Yrotation
                  End Site
                  {
                    OFFSET -1.78271 -1.18214 1.43049
                  }
                }
              }
              JOINT rIndex1
              {
                OFFSET -7.75947 0.938293 5.60832
                CHANNELS 3 Zrotation Xrotation Yrotation
                JOINT rIndex2
                {
                  OFFSET -2.54057 -0.884171 1.56538
                  CHANNELS 3 Zrotation Xrotation Yrotation
                  End Site
                  {
                    OFFSET -1.62519 -0.234802 1.16502
                  }
                }
              }
              JOINT rMid1
              {
                OFFSET -8.24714 1.18213 3.41376
                CHANNELS 3 Zrotation Xrotation Yrotation
                JOINT rMid2
                {
                  OFFSET -3.10165 -0.590103 1.0647
                  CHANNELS 3 Zrotation Xrotation Yrotation
                  End Site
                  {
                    OFFSET -2.48547 -0.328903 0.83742
                  }
                }
              }
              JOINT rRing1
              {
                OFFSET -8.82822 0.546677 1.51678
                CHANNELS 3 Zrotation Xrotation Yrotation
                JOINT rRing2
                {
                  OFFSET -2.60934 -0.819778 -0.0198488
                  CHANNELS 3 Zrotation Xrotation Yrotation
                  End Site
                  {
                    OFFSET -2.33842 -0.294052 0.168128
                  }
                }
              }
              JOINT rPinky1
              {
                OFFSET -8.27202 -0.0477905 -0.4584
                CHANNELS 3 Zrotation Xrotation Yrotation
                JOINT rPinky2
                {
                  OFFSET -1.82734 -0.647385 -0.700984
                  CHANNELS 3 Zrotation Xrotation Yrotation
                  End Site
                  {
                    OFFSET -1.69225 -0.51767 -0.607171
                  }
                }
              }
            }
          }
        }
      }
      JOINT lCollar
      {
        OFFSET 2.68224 19.2634 -4.8768
        CHANNELS 3 Zrotation Xrotation Yrotation
        JOINT lShldr
        {
          OFFSET 8.77824 -1.95073 1.46304
          CHANNELS 3 Zrotation Xrotation Yrotation
          JOINT lForeArm
          {
            OFFSET 28.1742 -1.7115 0.48768
            CHANNELS 3 Zrotation Xrotation Yrotation
            JOINT lHand
            {
              OFFSET 22.5879 0.773209 7.07136
              CHANNELS 3 Zrotation Xrotation Yrotation
              JOINT lThumb1
              {
                OFFSET 1.2192 -0.487915 3.41376
                CHANNELS 3 Zrotation Xrotation Yrotation
                JOINT lThumb2
                {
                  OFFSET 3.37035 -0.52449 3.41376
                  CHANNELS 3 Zrotation Xrotation Yrotation
                  End Site
                  {
                    OFFSET 1.78271 -1.18214 1.43049
                  }
                }
              }
              JOINT lIndex1
              {
                OFFSET 7.75947 0.938293 5.60832
                CHANNELS 3 Zrotation Xrotation Yrotation
                JOINT lIndex2
                {
                  OFFSET 2.54057 -0.884171 1.56538
                  CHANNELS 3 Zrotation Xrotation Yrotation
                  End Site
                  {
                    OFFSET 1.62519 -0.234802 1.16502
                  }
                }
              }
              JOINT lMid1
              {
                OFFSET 8.24714 1.18213 3.41376
                CHANNELS 3 Zrotation Xrotation Yrotation
                JOINT lMid2
                {
                  OFFSET 3.10165 -0.590103 1.0647
                  CHANNELS 3 Zrotation Xrotation Yrotation
                  End Site
                  {
                    OFFSET 2.48547 -0.328903 0.83742
                  }
                }
              }
              JOINT lRing1
              {
                OFFSET 8.82822 0.546677 1.51678
                CHANNELS 3 Zrotation Xrotation Yrotation
                JOINT lRing2
                {
                  OFFSET 2.60934 -0.819778 -0.0198488
                  CHANNELS 3 Zrotation Xrotation Yrotation
                  End Site
                  {
                    OFFSET 2.33842 -0.294052 0.168128
                  }
                }
              }
              JOINT lPinky1
              {
                OFFSET 8.27202 -0.0477905 -0.4584
                CHANNELS 3 Zrotation Xrotation Yrotation
                JOINT lPinky2
                {
                  OFFSET 1.82734 -0.647385 -0.700984
                  CHANNELS 3 Zrotation Xrotation Yrotation
                  End Site
                  {
                    OFFSET 1.69225 -0.51767 -0.607171
                  }
                }
              }
            }
          }
        }
      }
    }
  }
  JOINT rButtock
  {
    OFFSET -8.77824 4.35084 1.2192
    CHANNELS 3 Zrotation Xrotation Yrotation
    JOINT rThigh
    {
      OFFSET 0 -1.70687 -2.19456
      CHANNELS 3 Zrotation Xrotation Yrotation
      JOINT rShin
      {
        OFFSET 0 -36.8199 0.73152
        CHANNELS 3 Zrotation Xrotation Yrotation
        JOINT rFoot
        {
          OFFSET 0.73152 -45.1104 -5.12064
          CHANNELS 3 Zrotation Xrotation Yrotation
          End Site
          {
            OFFSET -1.1221 -3.69964 12.103
          }
        }
      }
    }
  }
  JOINT lButtock
  {
    OFFSET 8.77824 4.35084 1.2192
    CHANNELS 3 Zrotation Xrotation Yrotation
    JOINT lThigh
    {
      OFFSET 0 -1.70687 -2.19456
      CHANNELS 3 Zrotation Xrotation Yrotation
      JOINT lShin
      {
        OFFSET 0 -36.8199 0.73152
        CHANNELS 3 Zrotation Xrotation Yrotation
        JOINT lFoot
        {
          OFFSET -0.73152 -45.1104 -5.12064
          CHANNELS 3 Zrotation Xrotation Yrotation
          End Site
          {
            OFFSET 1.1221 -3.69964 12.103
          }
        }
      }
    }
  }
}
MOTION
Frames:	4
Frame Time:	0.03333
64.3895 59.5075 -43.857099999999996 -107.272436 79.489325 -117.254292 7.560624 19.547993 -0.0 1.213708 -7.522764 20.933102 9.905141 23.185185 97.262482 -28.258572 7.763733 -92.829886 0.00477 -0.0 -0.006164 -0.00088 0.0 -0.000781 -36.841027 -85.870723 -58.316193 110.764703 47.937419 -106.927803 84.300356 -16.914554 70.104027 -164.97327 57.320315 142.090495 -85.830581 38.630766 47.954504 154.926718 -50.330288 68.01807 -145.523893 -6.584618 118.76603 -79.884894 57.279643 61.127892 -89.835866 60.702586 81.262672 -7.21448 26.184507 6.2506 -72.757606 -72.144428 -89.771638 -150.96406 -1.628294 176.562676 12.989237 44.34408 10.762547 -155.852488 39.000339 -148.234566 -4.225717 -44.097067 8.516225 104.129193 -13.714624 143.762693 5.854469 8.743492 62.766424 -154.54188 -42.819783 -135.680015 176.533863 -14.149414 -89.696615 -40.167062 -69.374467 -30.563271 -174.38099 -63.059837 -113.271479 69.905439 56.205542 -57.036557 36.034926 51.723436 -29.832127 -80.69701 -77.902713 -52.066429 69.297581 72.946579 -87.017026 156.237888 -46.601439 176.058691 -6.227758 18.789599 -5.573947 127.615895 -31.01715 125.637673 179.978489 75.749726 0.014718 142.456115 68.567343 -40.10297 -69.766196 12.252253 -33.069731 35.971727 21.475205 80.773379 -0.007246 -8.4e-05 -0.003623 53.369449 -46.835016 61.529282 56.755619 65.315285 98.715259 -144.894008 13.996012 146.386431
65.301 59.757400000000004 -44.5982 -107.818449 77.360906 -117.012105 9.023196 14.56276 147.72516 -3.422582 1.829922 -127.63033 -11.509318 22.894234 -74.082481 31.91903 8.812108 76.951447 0.001362 -0.0 -0.001873 -0.003748 -0.0 0.001059 -159.22047 -48.72481 170.568587 -136.856642 -66.151532 -103.219596 14.901264 63.966052 -95.685953 161.451962 -29.124731 141.832984 -85.828993 38.630457 47.955775 20.913634 -26.464674 21.712882 -145.338897 -6.264565 118.677345 -48.360901 54.896833 32.647267 -152.825118 14.792708 138.513872 92.068614 -78.204431 62.998861 -145.119273 0.309398 -179.227159 -155.570936 1.482301 -179.415502 -150.576916 31.033464 -146.365159 -25.962103 -40.229903 -26.915101 3.768061 17.920885 -4.641836 -121.885574 -65.577428 -47.428986 1.153854 80.02039 -40.205096 7.823795 25.784322 -1.097138 5.174731 5.020262 -1.016732 120.482318 -13.667582 -107.53747 77.668255 43.029558 -64.538113 87.127679 51.757889 -63.853195 -2.101192 -6.305319 1.080379 13.392416 36.408261 -10.630878 145.008906 -5.000919 177.550323 153.75216 -12.509815 177.520911 151.490657 34.55795 147.062511 76.542436 -53.014634 75.754979 -0.003362 0.000127 -0.003362 -12.441853 0.032513 -0.243976 22.671224 58.040043 61.859522 174.191711 20.419518 113.130812 -0.003362 0.000127 -0.003362 56.290928 -47.77525 63.709195 56.4481 59.527326 37.398866 -148.944602 27.585614 81.616705
65.9747 60.02760000000001 -45.217800000000004 -106.971771 76.292321 -115.709944 14.016033 17.852424 -53.615678 4.7745 -5.049942 72.483897 -8.357628 16.529932 -34.409303 24.239393 -10.324102 40.882161 0.001409 -0.0 -0.002492 -0.004239 -0.0 0.002928 -44.920024 -86.287762 -66.528045 113.551552 48.079536 -109.4394 -5.782736 4.158859 51.294544 -5.128808 26.847599 1.800819 87.247482 -50.689427 36.415726 -137.618683 17.561767 101.024088 -138.764626 4.488483 115.032733 -157.473108 -2.870507 118.287414 0.541997 -1.589814 -0.294758 -85.931413 64.246776 77.777577 1.2e-05 -0.018328 -0.007019 8.356514 20.255751 2.86851 -110.052526 -41.782125 -108.127929 -154.107532 36.359008 -146.665959 155.547831 -3.80431 -161.899978 80.904873 -87.972399 31.244417 104.180057 -86.991788 70.83048 6.218689 21.554065 -0.700074 78.029979 38.689434 -42.413163 -49.990858 -39.709669 -20.925615 39.688443 37.280247 -30.591513 159.719165 -4.246317 -111.389622 -6.53314 -20.414954 2.71716 167.391352 -17.300327 -144.214761 0.015379 -1.323088 0.416278 -6.254235 33.726732 -5.588734 156.519884 54.24996 150.178563 161.435442 52.575655 147.249187 -0.064038 0.000516 -0.048029 -10.108314 0.901708 -84.871025 -59.241839 16.041266 -174.530936 -12.605529 37.551079 -120.990906 -179.991891 75.748934 -0.005548 -144.430873 9.266447 -0.0 42.796432 64.972233 26.170048 -130.184081 28.678155 50.930954
66.5777 60.23349999999999 -45.7294 -106.029173 76.408775 -114.405531 14.535433 16.672861 -81.338169 5.54961 -2.343361 100.211919 -10.490088 27.292703 -100.63304 30.78059 21.020572 100.88309 0.000874 0.0 0.00424 0.00082 -0.0 -0.000845 4.261287 -46.008943 -8.908732 58.555945 26.466664 -40.119216 -173.279073 -16.470871 95.896932 157.378749 -37.26254 138.522674 -68.482686 37.952837 35.660016 66.474704 -47.03996 21.824618 2.324574 -3.868241 -1.258821 -65.471642 48.478648 50.844956 -125.642895 49.839871 115.274452 -166.737492 -15.882373 143.892872 -145.119897 0.267661 -179.212689 -157.321725 37.817832 176.484581 -144.258898 9.238136 -141.009336 -171.731846 71.020321 -142.752964 9.651012 34.83645 -11.198075 91.03447 10.930377 -136.87586 7.041058 1.934075 69.294656 -160.49856 -38.344177 -138.485652 157.999311 4.194804 -88.450726 -111.733665 -55.972175 -76.905766 151.352771 -17.158634 -121.132861 62.15379 57.359958 -46.046744 161.517531 -9.304082 -143.626953 -179.882455 -48.693413 -140.895944 -0.000592 0.036366 -0.011228 77.414234 78.793913 -90.824276 112.782379 -40.023706 110.810601 125.97587 -29.936725 124.659978 -179.997725 75.750298 -0.0 133.592207 74.052269 45.052848 19.971327 53.102608 64.364294 -109.684316 -51.067375 -179.699503 -179.987019 75.749124 -0.011454 -143.969217 9.246677 -0.0 11.149853 72.519074 -101.692303 148.135748 16.513848 -91.376809
